<svg t="1785151159356" class="icon" viewBox="0 0 1024 1024" version="1.1"
  xmlns="http://www.w3.org/2000/svg" p-id="56001" xmlns:xlink="http://www.w3.org/1999/xlink">
  <path
    d="M21.707165 486.426545h438.997473a21.621634 21.621634 0 0 0 21.59152-21.681862V23.247774c0-19.332993-23.308001-29.029604-36.889278-15.357985L6.439521 449.356584c-13.611391 13.701732-4.005122 37.039847 15.267644 37.039848z m179.025928 58.510913a20.356859 20.356859 0 0 0-14.454575-6.052853h-165.625333c-18.339241 0-27.493805 22.223908-14.544915 35.233025l441.165659 443.665096a20.477314 20.477314 0 0 0 35.022229-14.575029v-166.558857a20.627882 20.627882 0 0 0-6.022739-14.605143l-275.540326-277.106239z m802.018088-6.052853H836.915052a20.356859 20.356859 0 0 0-14.42446 6.02274l-275.540327 277.046011a20.597769 20.597769 0 0 0-5.962512 14.544915v166.799767c0 18.279014 22.013112 27.403464 34.841548 14.514802l441.376454-443.875892c12.858549-12.94889 3.764212-35.052343-14.42446-35.052343z m0.602274-53.903517H837.517326a20.296632 20.296632 0 0 1-14.394347-6.02274l-275.540326-277.076124a20.597769 20.597769 0 0 1-6.022739-14.514802V20.537541c0-18.2489 22.043226-27.403464 34.871661-14.484688l441.376454 443.875892c12.858549 12.94889 3.764212 35.052343-14.454574 35.052343z"
    p-id="56002" fill="currentColor"></path>
</svg>
